<svg width="38" height="35" viewBox="0 0 38 35" fill="none" xmlns="http://www.w3.org/2000/svg">
<g id="search" clip-path="url(#clip0_2_33)">
<path id="Vector" d="M4.83768 14.5833C4.83768 15.9239 5.11662 17.2514 5.65858 18.4899C6.20054 19.7284 6.99491 20.8538 7.99632 21.8017C8.99774 22.7496 10.1866 23.5016 11.495 24.0146C12.8034 24.5276 14.2058 24.7917 15.622 24.7917C17.0382 24.7917 18.4405 24.5276 19.7489 24.0146C21.0574 23.5016 22.2462 22.7496 23.2476 21.8017C24.249 20.8538 25.0434 19.7284 25.5854 18.4899C26.1273 17.2514 26.4063 15.9239 26.4063 14.5833C26.4063 13.2428 26.1273 11.9153 25.5854 10.6768C25.0434 9.43824 24.249 8.31288 23.2476 7.36495C22.2462 6.41702 21.0574 5.66508 19.7489 5.15206C18.4405 4.63905 17.0382 4.375 15.622 4.375C14.2058 4.375 12.8034 4.63905 11.495 5.15206C10.1866 5.66508 8.99774 6.41702 7.99632 7.36495C6.99491 8.31288 6.20054 9.43824 5.65858 10.6768C5.11662 11.9153 4.83768 13.2428 4.83768 14.5833Z" stroke="#F2F2F2" stroke-width="2.75" stroke-linecap="round" stroke-linejoin="round"/>
<path id="Vector_2" d="M32.5687 30.625L23.325 21.875" stroke="#F2F2F2" stroke-width="2.75" stroke-linecap="round" stroke-linejoin="round"/>
</g>
<defs>
<clipPath id="clip0_2_33">
<rect width="36.9747" height="35" fill="white" transform="translate(0.215851)"/>
</clipPath>
</defs>
</svg>
